<?xml version="1.0" encoding="utf-8"?>
<!-- Generator: Adobe Illustrator 25.2.3, SVG Export Plug-In . SVG Version: 6.00 Build 0)  -->
<svg version="1.1" id="Layer_1" xmlns="http://www.w3.org/2000/svg" xmlns:xlink="http://www.w3.org/1999/xlink" x="0px" y="0px"
	 viewBox="0 0 24 24" style="enable-background:new 0 0 24 24;" xml:space="preserve">
<style type="text/css">
	.st0{fill:#D7000F;}
	.st1{fill:#FFFFFF;}
	.st2{display:none;}
	.st3{display:inline;}
	.st4{fill:#4E5459;}
	.st5{display:inline;fill:#4E5459;}
</style>
<path class="st0" d="M22.2,17.5H1.8c-1,0-1.8-0.8-1.8-1.8V8.3c0-1,0.8-1.8,1.8-1.8h20.3c1,0,1.8,0.8,1.8,1.8v7.3
	C24,16.7,23.2,17.5,22.2,17.5z"/>
<text transform="matrix(1 0 0 1 -20.7649 12.7875)" style="font-family:'GmarketSansTTFMedium'; font-size:7.2683px;">LIVE</text>
<g>
	<path class="st1" d="M4.9,8.9v4.3h2.7v1.1H3.7V8.9H4.9z"/>
	<path class="st1" d="M9.5,8.9v5.3H8.3V8.9H9.5z"/>
	<path class="st1" d="M15.6,8.9l-2.1,5.3h-1.3l-2.1-5.3h1.4l1.5,3.9l1.5-3.9H15.6z"/>
	<path class="st1" d="M16.3,8.9h4v1h-2.8V11H20v1h-2.6v1.1h2.8v1h-4V8.9z"/>
</g>
<text transform="matrix(1 0 0 1 28.2461 18.8506)" class="st1" style="font-family:'GmarketSansTTFBold'; font-size:7.2683px;">LIVE</text>
<g class="st2">
	<g class="st3">
		<path class="st4" d="M15.8,3.9L15.8,3.9L15.8,3.9c-0.1-0.2-0.1-0.4-0.2-0.6l0,0c-0.2-0.4-0.4-0.7-0.7-1l0,0
			c-0.1-0.1-0.3-0.3-0.4-0.4c0,0,0,0-0.1,0c-0.3-0.2-0.7-0.4-1-0.6h-0.1c-0.2-0.1-0.4-0.1-0.5-0.1h-0.1C12.4,1,12.2,1,12,1
			s-0.4,0-0.6,0.1h-0.1c-0.2,0-0.4,0.1-0.5,0.1h-0.1c-0.4,0.1-0.7,0.3-1,0.6c0,0,0,0-0.1,0C9.4,2,9.3,2.1,9.2,2.2l0,0
			c-0.3,0.3-0.5,0.6-0.7,1l0,0C8.3,3.5,8.3,3.7,8.2,3.9l0,0l0,0c-0.1,0.3-0.1,0.7-0.1,1v3.9v3.3c0,2.2,1.8,3.9,3.9,3.9
			c2.2,0,3.9-1.8,3.9-3.9V8.9v-4C15.9,4.6,15.9,4.2,15.8,3.9z"/>
	</g>
	<path class="st5" d="M18.5,12.2c0-0.3-0.2-0.5-0.5-0.5s-0.5,0.2-0.5,0.5c0,3-2.4,5.5-5.5,5.5s-5.5-2.4-5.5-5.5
		c0-0.3-0.2-0.5-0.5-0.5s-0.5,0.2-0.5,0.5c0,3.1,2.2,5.7,5.1,6.3v3.2H9.1c-0.3,0-0.5,0.2-0.5,0.5v0.4c0,0.3,0.2,0.5,0.5,0.5h1.6h2.7
		H15c0.3,0,0.5-0.2,0.5-0.5v-0.4c0-0.3-0.2-0.5-0.5-0.5h-1.6v-3.2C16.3,17.9,18.5,15.3,18.5,12.2z"/>
</g>
</svg>
